<?xml version="1.0" encoding="utf-8"?>
<!-- Generator: Adobe Illustrator 21.1.0, SVG Export Plug-In . SVG Version: 6.00 Build 0)  -->
<svg version="1.1" id="Layer_1" xmlns="http://www.w3.org/2000/svg" xmlns:xlink="http://www.w3.org/1999/xlink" x="0px" y="0px"
	 viewBox="0 0 21.9 21.9" style="enable-background:new 0 0 21.9 21.9;" xml:space="preserve">
<style type="text/css">
	.st0{clip-path:url(#SVGID_2_);}
	.st1{fill:#DB1F26;}
	.st2{fill:#FECE08;}
	.st3{fill:none;stroke:#E6E7E8;stroke-width:0.2455;stroke-miterlimit:10;}
	.st4{clip-path:url(#SVGID_4_);}
	.st5{fill:#2F4794;}
	.st6{fill:#FCF5F9;}
	.st7{fill:#EE2D28;}
	.st8{fill:#FFFFFF;}
	.st9{fill:#CD202D;}
	.st10{clip-path:url(#SVGID_6_);}
	.st11{fill-rule:evenodd;clip-rule:evenodd;fill:#324295;}
	.st12{fill-rule:evenodd;clip-rule:evenodd;fill:#F4F4F4;}
	.st13{fill-rule:evenodd;clip-rule:evenodd;fill:#D61F35;}
	.st14{clip-path:url(#SVGID_8_);}
	.st15{fill-rule:evenodd;clip-rule:evenodd;fill:#B51F2E;}
	.st16{fill-rule:evenodd;clip-rule:evenodd;fill:#F5C425;}
</style>
<g>
	<defs>
		<circle id="SVGID_3_" cx="10.9" cy="10.9" r="10.7"/>
	</defs>
	<clipPath id="SVGID_2_">
		<use xlink:href="#SVGID_3_"  style="overflow:visible;"/>
	</clipPath>
	<g class="st0">
		<g>
			<g>
				<polygon class="st5" points="28.1,0.2 28.1,21.7 28.1,21.7 -6.2,21.7 -6.2,0.2 				"/>
			</g>
		</g>
		<g>
			<g>
				<g>
					<polygon class="st6" points="28.1,19.5 28.1,21.7 28.1,21.7 24.5,21.7 14,15.1 12.9,14.4 11.7,13.7 11.3,13.4 10,12.6 
						9.5,12.3 9.1,12.1 8.3,11.6 8.1,11.4 7.7,11.2 4,8.8 2.3,7.8 -6.2,2.4 -6.2,0.2 -6.2,0.2 -6.1,0.2 -2.6,0.2 8.1,6.9 9.1,7.6 
						9.4,7.8 11.1,8.8 11.3,8.9 11.9,9.3 12.9,10 13.1,10.1 14,10.6 14.8,11.2 17.1,12.6 18.8,13.7 					"/>
				</g>
			</g>
			<g>
				<g>
					<polygon class="st7" points="28.1,21.6 28.1,21.7 25.8,21.7 14,14.3 13,13.7 12.9,13.6 11.9,13 11.3,12.6 10.2,11.9 9.1,11.2 
						9,11.2 8.3,10.7 8.1,10.6 5.2,8.8 3.6,7.8 -6.2,1.6 -6.2,0.1 -6.2,0.2 -6.1,0.2 5.9,7.8 7.6,8.8 8.1,9.1 9.1,9.8 9.5,10 
						10.2,10.4 11.4,11.2 12.9,12.1 13.1,12.2 13.7,12.6 14,12.8 15.3,13.7 					"/>
				</g>
			</g>
		</g>
		<g>
			<g>
				<g>
					<polygon class="st6" points="28.1,0.6 28.1,2.9 20.3,7.8 18.6,8.8 14.8,11.2 14,11.7 13.1,12.2 12.9,12.4 12.5,12.6 11.9,13 
						11.3,13.4 10.8,13.7 9.1,14.7 8.1,15.4 -2,21.7 -6.2,21.7 -6.2,19.9 3.7,13.7 5.4,12.6 7.7,11.2 8.1,10.9 8.3,10.7 9.1,10.2 
						9.5,10 11.3,8.9 11.4,8.8 12.9,7.9 13.1,7.8 14,7.2 25.2,0.2 27.8,0.2 					"/>
				</g>
			</g>
			<g>
				<g>
					<polygon class="st7" points="28,0.7 16.8,7.8 15.1,8.8 14,9.5 13.1,10.1 12.9,10.2 11.4,11.2 10.2,11.9 9.5,12.3 9.1,12.5 
						9.1,12.6 8.1,13.2 7.4,13.7 -5.4,21.7 -6.2,21.7 -6.2,20.7 5,13.7 6.7,12.6 8.1,11.7 8.3,11.6 9,11.2 9.1,11.1 10.2,10.4 
						11.9,9.3 12.7,8.8 12.9,8.7 14,8 14.4,7.8 26.5,0.2 27.7,0.2 28.1,0.2 28.1,0.7 					"/>
				</g>
			</g>
		</g>
		<g>
			<g>
				<rect x="-6.2" y="7.8" class="st8" width="34.3" height="5.9"/>
			</g>
		</g>
		<g>
			<g>
				<rect x="-6.2" y="8.8" class="st7" width="34.3" height="3.8"/>
			</g>
		</g>
		<g>
			<g>
				<rect x="9.1" y="0.2" class="st9" width="3.8" height="21.5"/>
			</g>
		</g>
		<g>
			<g>
				<g>
					<polygon class="st8" points="12.9,13.7 14,13.7 14,21.7 8.1,21.7 8.1,13.7 9.1,13.7 9.1,7.8 8.1,7.8 8.1,0.2 14,0.2 14,7.8 
						12.9,7.8 					"/>
				</g>
			</g>
			<g>
				<g>
					<rect x="9.1" y="0.2" class="st7" width="3.8" height="21.5"/>
				</g>
			</g>
		</g>
	</g>
</g>
<circle class="st3" cx="10.9" cy="10.9" r="10.7"/>
</svg>
